SplineFontDB: 3.0
FontName: Pentatonic
FullName: Pentatonic
FamilyName: Pentatonic
Weight: Regular
Copyright: Copyright (c) 2016, Michael Tolly
UComments: "2016-10-4: Created with FontForge (http://fontforge.org)"
Version: 001.000
ItalicAngle: 0
UnderlinePosition: -100
UnderlineWidth: 50
Ascent: 800
Descent: 200
InvalidEm: 0
LayerCount: 2
Layer: 0 0 "Back" 1
Layer: 1 0 "Fore" 0
XUID: [1021 15 902490472 7850117]
OS2Version: 0
OS2_WeightWidthSlopeOnly: 0
OS2_UseTypoMetrics: 1
CreationTime: 1475629050
ModificationTime: 1475635711
OS2TypoAscent: 0
OS2TypoAOffset: 1
OS2TypoDescent: 0
OS2TypoDOffset: 1
OS2TypoLinegap: 0
OS2WinAscent: 0
OS2WinAOffset: 1
OS2WinDescent: 0
OS2WinDOffset: 1
HheadAscent: 0
HheadAOffset: 1
HheadDescent: 0
HheadDOffset: 1
OS2Vendor: 'PfEd'
MarkAttachClasses: 1
DEI: 91125
Encoding: ISO8859-1
UnicodeInterp: none
NameList: AGL For New Fonts
DisplaySize: -48
AntiAlias: 1
FitToEm: 0
WinInfo: 64 16 4
BeginPrivate: 0
EndPrivate
BeginChars: 256 57

StartChar: A
Encoding: 65 65 0
Width: 1000
VWidth: 0
Flags: H
LayerCount: 2
Fore
SplineSet
442.608398438 612.369140625 m 1
 592.967773438 612.369140625 l 1
 832.686523438 0 l 1
 717.19140625 0 l 1
 664.888671875 128.573242188 l 1
 368.5078125 128.573242188 l 1
 316.21484375 0 l 1
 200.709960938 0 l 1
 442.608398438 612.369140625 l 1
512.338867188 507.762695312 m 1
 403.383789062 235.359375 l 1
 623.484375 235.359375 l 1
 512.338867188 507.762695312 l 1
EndSplineSet
EndChar

StartChar: B
Encoding: 66 66 1
Width: 1000
VWidth: 0
Flags: H
LayerCount: 2
Fore
SplineSet
577.805664062 97.7216796875 m 2
 729.376953125 97.7216796875 712.971679688 279.907226562 577.805664062 279.907226562 c 2
 387.026367188 279.907226562 l 1
 387.026367188 97.7216796875 l 1
 577.805664062 97.7216796875 l 2
589.200195312 373.206054688 m 2
 687.94140625 373.206054688 696.990234375 506.012695312 589.200195312 506.012695312 c 2
 387.026367188 506.012695312 l 1
 387.026367188 373.206054688 l 1
 589.200195312 373.206054688 l 2
592.998046875 609.434570312 m 2
 820.306640625 609.434570312 807.443359375 365.697265625 682.25390625 333.201171875 c 1
 845.203125 297.842773438 828.805664062 0 606.291992188 0 c 2
 274.12109375 0 l 1
 274.12109375 609.434570312 l 1
 592.998046875 609.434570312 l 2
EndSplineSet
EndChar

StartChar: C
Encoding: 67 67 2
Width: 1000
VWidth: 0
Flags: H
LayerCount: 2
Fore
SplineSet
530.806640625 637.916992188 m 0
 677.416992188 637.916992188 765.268554688 557.287109375 806.21484375 454.095703125 c 1
 690.451171875 454.095703125 l 1
 655.473632812 502.755859375 601.029296875 533.119140625 535.889648438 535.426757812 c 0
 442.829101562 538.723632812 344.877929688 459.26171875 339.440429688 335.771484375 c 0
 333.537109375 201.694335938 422.912109375 110.530273438 537.954101562 106.061523438 c 0
 605.079101562 103.454101562 661.458007812 138.421875 695.984375 190.872070312 c 1
 811.814453125 190.872070312 l 1
 762.005859375 62.68359375 642.022460938 -2.0771484375 529.120117188 0.05078125 c 0
 348.654296875 3.453125 225.340820312 152.778320312 227.65625 326.9375 c 0
 230.161132812 515.408203125 380.620117188 637.916992188 530.806640625 637.916992188 c 0
EndSplineSet
EndChar

StartChar: D
Encoding: 68 68 3
Width: 1000
VWidth: 0
Flags: H
LayerCount: 2
Fore
SplineSet
511.338867188 613.647460938 m 2
 914.899414062 613.647460938 916.765625 0 513.124023438 0 c 2
 264.836914062 0 l 1
 264.836914062 613.647460938 l 1
 511.338867188 613.647460938 l 2
509.5546875 103.8203125 m 2
 772.032226562 103.8203125 746.388671875 507.478515625 539.732421875 507.97265625 c 0
 488.662109375 508.076171875 431.024414062 507.880859375 377.931640625 507.97265625 c 1
 377.931640625 103.8203125 l 1
 509.5546875 103.8203125 l 2
EndSplineSet
EndChar

StartChar: E
Encoding: 69 69 4
Width: 1000
VWidth: 0
Flags: H
LayerCount: 2
Fore
SplineSet
310.590820312 610.2421875 m 1
 745.154296875 610.2421875 l 1
 745.154296875 505.447265625 l 1
 427.720703125 505.447265625 l 1
 427.720703125 372.923828125 l 1
 720.49609375 372.923828125 l 1
 720.49609375 268.138671875 l 1
 427.720703125 268.138671875 l 1
 427.720703125 101.724609375 l 1
 757.489257812 101.724609375 l 1
 757.489257812 0 l 1
 310.590820312 0 l 1
 310.590820312 610.2421875 l 1
EndSplineSet
EndChar

StartChar: at
Encoding: 64 64 5
Width: 1000
VWidth: 0
Flags: H
LayerCount: 2
Fore
SplineSet
503.280273438 619.154296875 m 0
 720.798828125 619.151367188 881.95703125 439.5546875 881.95703125 240.467773438 c 0
 881.95703125 167.4765625 855.09765625 85.30859375 783.680664062 66.1728515625 c 0
 638.41015625 27.248046875 607.870117188 121.584960938 601.053710938 118.895507812 c 1
 573.16796875 69.8466796875 519.888671875 43.8974609375 433.172851562 59.916015625 c 0
 301.763671875 84.1923828125 281.341796875 274.75390625 345.7734375 357.764648438 c 0
 409.696289062 440.118164062 509.705078125 439.397460938 587.053710938 386.248046875 c 1
 587.053710938 416.408203125 l 1
 672.513671875 416.408203125 l 1
 672.513671875 230.41796875 l 2
 672.513671875 189.465820312 681.701171875 147.224609375 706.603515625 138.26171875 c 0
 732.724609375 128.858398438 783.103515625 128.688476562 783.103515625 237.953125 c 0
 783.103515625 400.360351562 664.895507812 530.340820312 497.412109375 530.340820312 c 0
 338.270507812 530.340820312 225.134765625 400.360351562 225.133789062 237.953125 c 0
 225.1328125 68.8427734375 350.0390625 -54.435546875 504.119140625 -54.435546875 c 0
 593.224609375 -54.435546875 658.6171875 -27.955078125 703.6484375 15.9443359375 c 1
 823.711914062 15.9443359375 l 1
 764.993164062 -77.53515625 660.419921875 -138.208984375 503.280273438 -138.208984375 c 0
 285.762695312 -138.211914062 124.596679688 17.9228515625 124.59375 240.467773438 c 0
 124.590820312 449.612304688 285.7578125 619.154296875 503.280273438 619.154296875 c 0
489.876953125 335.977539062 m 0
 489.875 335.977539062 489.872070312 335.977539062 489.870117188 335.977539062 c 0
 441.774414062 335.977539062 402.740234375 293.190429688 402.740234375 240.469726562 c 0
 402.740234375 240.46875 402.740234375 240.46875 402.740234375 240.467773438 c 0
 402.740234375 240.466796875 402.740234375 240.465820312 402.740234375 240.465820312 c 0
 402.740234375 187.745117188 441.774414062 144.95703125 489.870117188 144.95703125 c 0
 489.872070312 144.95703125 489.875 144.95703125 489.876953125 144.95703125 c 0
 537.970703125 144.959960938 577.00390625 187.747070312 577.00390625 240.465820312 c 0
 577.00390625 240.465820312 577.00390625 240.466796875 577.00390625 240.467773438 c 0
 577.00390625 240.46875 577.00390625 240.46875 577.00390625 240.469726562 c 0
 577.00390625 293.1875 537.970703125 335.975585938 489.876953125 335.977539062 c 0
EndSplineSet
EndChar

StartChar: F
Encoding: 70 70 6
Width: 1000
VWidth: 0
Flags: H
LayerCount: 2
Fore
SplineSet
302.66796875 614.5390625 m 1
 745.049804688 614.5390625 l 1
 745.049804688 507.752929688 l 1
 418.163085938 507.752929688 l 1
 418.163085938 377 l 1
 712.364257812 377 l 1
 712.364257812 274.583984375 l 1
 418.163085938 274.583984375 l 1
 418.163085938 0 l 1
 302.66796875 0 l 1
 302.66796875 614.5390625 l 1
EndSplineSet
EndChar

StartChar: G
Encoding: 71 71 7
Width: 1000
VWidth: 0
Flags: H
LayerCount: 2
Fore
SplineSet
503.643554688 368.470703125 m 1
 833.276367188 368.470703125 l 1
 833.276367188 103.715820312 l 1
 756.706054688 21.150390625 570.921875 -26.89453125 432.234375 16.025390625 c 0
 246.14453125 73.6142578125 214.30859375 338.15234375 292.106445312 472.903320312 c 0
 450.15234375 746.647460938 802.66015625 604.360351562 814.94921875 472.903320312 c 1
 695.846679688 472.903320312 l 1
 649.295898438 542.71484375 489.813476562 558.147460938 417.360351562 471.149414062 c 0
 311.399414062 343.916992188 375.786132812 178.58984375 440.522460938 128.263671875 c 0
 525.875 61.9091796875 660.096679688 94.607421875 726.322265625 149.301757812 c 1
 726.322265625 268.52734375 l 1
 503.643554688 268.52734375 l 1
 503.643554688 368.470703125 l 1
EndSplineSet
EndChar

StartChar: H
Encoding: 72 72 8
Width: 1000
VWidth: 0
Flags: H
LayerCount: 2
Fore
SplineSet
254.71875 610.2421875 m 1
 365.67578125 610.2421875 l 1
 365.67578125 376.00390625 l 1
 689.282226562 376.00390625 l 1
 689.282226562 610.2421875 l 1
 806.401367188 610.2421875 l 1
 806.401367188 0 l 1
 689.282226562 0 l 1
 689.282226562 271.219726562 l 1
 365.67578125 271.219726562 l 1
 365.67578125 0 l 1
 254.71875 0 l 1
 254.71875 610.2421875 l 1
EndSplineSet
EndChar

StartChar: I
Encoding: 73 73 9
Width: 1000
VWidth: 0
Flags: H
LayerCount: 2
Fore
SplineSet
461.7265625 0 m 1
 461.7265625 616.377929688 l 1
 578.837890625 616.377929688 l 1
 578.837890625 0 l 1
 461.7265625 0 l 1
EndSplineSet
EndChar

StartChar: J
Encoding: 74 74 10
Width: 1000
VWidth: 0
Flags: H
LayerCount: 2
Fore
SplineSet
509.151367188 607.229492188 m 1
 616.465820312 607.229492188 l 1
 616.465820312 170.021484375 l 2
 616.465820312 15.0810546875 532.846679688 -7.6630859375 407.799804688 1.865234375 c 1
 407.799804688 98.478515625 l 1
 496.634765625 95.390625 509.151367188 126.181640625 509.151367188 175.983398438 c 2
 509.151367188 607.229492188 l 1
EndSplineSet
EndChar

StartChar: K
Encoding: 75 75 11
Width: 1000
VWidth: 0
Flags: H
LayerCount: 2
Fore
SplineSet
256.125 614.161132812 m 1
 369.858398438 614.161132812 l 1
 369.858398438 406.489257812 l 1
 639.590820312 614.161132812 l 1
 787.833007812 614.161132812 l 1
 787.833007812 606.259765625 l 1
 540.7265625 418.969726562 l 1
 787.833007812 3.4794921875 l 1
 787.833007812 0 l 1
 658.999023438 0 l 1
 453.778320312 353.075195312 l 1
 369.858398438 289.46484375 l 1
 369.858398438 0 l 1
 256.125 0 l 1
 256.125 614.161132812 l 1
EndSplineSet
EndChar

StartChar: L
Encoding: 76 76 12
Width: 1000
VWidth: 0
Flags: H
LayerCount: 2
Fore
SplineSet
289.763671875 612.453125 m 1
 403.759765625 612.453125 l 1
 403.759765625 105.056640625 l 1
 723.39453125 105.056640625 l 1
 723.39453125 0 l 1
 289.763671875 0 l 1
 289.763671875 612.453125 l 1
EndSplineSet
EndChar

StartChar: M
Encoding: 77 77 13
Width: 1000
VWidth: 0
Flags: H
LayerCount: 2
Fore
SplineSet
164.380859375 616.55078125 m 1
 347.196289062 616.55078125 l 1
 530.387695312 152.665039062 l 1
 710.268554688 616.55078125 l 1
 896.405273438 616.55078125 l 1
 896.405273438 0 l 1
 786.799804688 0 l 1
 786.799804688 510.854492188 l 1
 580.427734375 0 l 1
 480.034179688 0 l 1
 270.06640625 510.854492188 l 1
 270.06640625 0 l 1
 164.380859375 0 l 1
 164.380859375 616.55078125 l 1
EndSplineSet
EndChar

StartChar: N
Encoding: 78 78 14
Width: 1000
VWidth: 0
Flags: H
LayerCount: 2
Fore
SplineSet
235.1875 613.301757812 m 1
 408.067382812 613.301757812 l 1
 685.145507812 168.458007812 l 1
 685.145507812 613.301757812 l 1
 796.091796875 613.301757812 l 1
 796.091796875 0 l 1
 668.985351562 0 l 1
 346.133789062 504.3046875 l 1
 346.133789062 0 l 1
 235.1875 0 l 1
 235.1875 613.301757812 l 1
EndSplineSet
EndChar

StartChar: O
Encoding: 79 79 15
Width: 1000
VWidth: 0
Flags: H
LayerCount: 2
Fore
SplineSet
525.46484375 637.796875 m 0
 716.736328125 635.420898438 843.46484375 488.104492188 843.46484375 309.201171875 c 0
 843.46484375 120.309570312 677.237304688 -2.728515625 523.704101562 0.0458984375 c 0
 335.459960938 3.447265625 206.831054688 152.741210938 209.24609375 326.870117188 c 0
 211.859375 515.307617188 368.81640625 639.7421875 525.46484375 637.796875 c 0
530.767578125 535.328125 m 0
 433.696289062 538.624023438 331.512695312 459.171875 325.840820312 335.704101562 c 0
 319.682617188 201.650390625 401.932617188 110.50390625 521.93359375 106.03515625 c 0
 639.127929688 101.671875 728.630859375 202.514648438 728.630859375 314.50390625 c 0
 728.630859375 439.807617188 650.719726562 531.254882812 530.767578125 535.328125 c 0
EndSplineSet
EndChar

StartChar: P
Encoding: 80 80 16
Width: 1000
VWidth: 0
Flags: H
LayerCount: 2
Fore
SplineSet
588.305664062 611.216796875 m 2
 849.9453125 611.216796875 826.50390625 239.697265625 588.305664062 239.697265625 c 2
 369.587890625 239.697265625 l 1
 369.587890625 0 l 1
 258.725585938 0 l 1
 258.725585938 611.216796875 l 1
 588.305664062 611.216796875 l 2
588.305664062 344.555664062 m 2
 694.151367188 344.555664062 699.969726562 509.345703125 588.305664062 509.345703125 c 2
 369.587890625 509.345703125 l 1
 369.587890625 344.555664062 l 1
 588.305664062 344.555664062 l 2
EndSplineSet
EndChar

StartChar: Q
Encoding: 81 81 17
Width: 1000
VWidth: 0
Flags: H
LayerCount: 2
Fore
SplineSet
492.405273438 635.807617188 m 0
 699.6328125 633.233398438 810.405273438 486.115234375 810.405273438 307.211914062 c 0
 810.405273438 227.266601562 780.563476562 159.186523438 734.575195312 107.37890625 c 1
 823.1171875 11.701171875 l 1
 686.904296875 11.701171875 l 1
 657.530273438 43.841796875 l 1
 606.231445312 13.33203125 545.579101562 -0.9765625 488.649414062 0.0517578125 c 0
 300.405273438 3.453125 173.495117188 130.806640625 176.186523438 324.880859375 c 0
 179.047851562 531.26953125 335.756835938 637.752929688 492.405273438 635.807617188 c 0
487.375 533.454101562 m 0
 381.260742188 532.076171875 298.275390625 453.32421875 292.78125 333.71484375 c 0
 286.166015625 189.70703125 368.873046875 108.514648438 488.873046875 104.045898438 c 0
 524.698242188 102.711914062 557.055664062 109.787109375 585.053710938 123.129882812 c 1
 446.201171875 275.029296875 l 1
 579.426757812 275.029296875 l 1
 660.58984375 187.327148438 l 1
 685.666992188 222.961914062 699.563476562 266.8359375 699.563476562 312.514648438 c 0
 699.563476562 437.818359375 617.659179688 529.265625 497.70703125 533.338867188 c 0
 494.23828125 533.454101562 490.797851562 533.497070312 487.375 533.454101562 c 0
EndSplineSet
EndChar

StartChar: R
Encoding: 82 82 18
Width: 1000
VWidth: 0
Flags: H
LayerCount: 2
Fore
SplineSet
606.161132812 607.676757812 m 1
 606.161132812 607.67578125 l 1
 856.235351562 607.67578125 845.948242188 291.84375 636.668945312 263.751953125 c 1
 791.638671875 0 l 1
 669.634765625 0 l 1
 507.478515625 261.760742188 l 1
 387.381835938 261.760742188 l 1
 387.381835938 0 l 1
 278.331054688 0 l 1
 278.331054688 607.676757812 l 1
 606.161132812 607.676757812 l 1
606.161132812 360.953125 m 2
 712.037109375 360.953125 717.856445312 511.309570312 606.161132812 511.309570312 c 2
 387.381835938 511.309570312 l 1
 387.381835938 360.953125 l 1
 606.161132812 360.953125 l 2
EndSplineSet
EndChar

StartChar: S
Encoding: 83 83 19
Width: 1000
VWidth: 0
Flags: H
LayerCount: 2
Fore
SplineSet
229.485351562 193.873046875 m 1
 349.875 193.873046875 l 1
 383.94140625 65.5283203125 631.549804688 65.8046875 658.875976562 167.7890625 c 0
 671.802734375 216.03125 615.588867188 252.419921875 553.502929688 273.018554688 c 0
 515.856445312 285.5078125 447.9609375 296.205078125 414.083007812 300.217773438 c 0
 388.168945312 303.287109375 328.375976562 318.561523438 284.927734375 374.340820312 c 0
 251.2578125 417.565429688 240.588867188 480.538085938 285.666992188 553.037109375 c 0
 373.026367188 693.538085938 733.578125 656.302734375 755.188476562 470.770507812 c 1
 636.8046875 470.770507812 l 1
 605.758789062 536.713867188 526.091796875 547.573242188 465.200195312 543.185546875 c 0
 417.657226562 539.759765625 373.014648438 511.83203125 367.93359375 470.770507812 c 0
 362.479492188 426.696289062 392.614257812 410.809570312 442.05859375 396.139648438 c 0
 483.1484375 383.948242188 541.614257812 375.426757812 596.674804688 362.418945312 c 0
 656.342773438 348.323242188 736.033203125 307.579101562 755.225585938 256.84765625 c 0
 774.794921875 205.12109375 769.235351562 135.79296875 747.162109375 97.5615234375 c 0
 708.561523438 30.703125 612.315429688 7.9208984375 540.657226562 1.4345703125 c 0
 384.149414062 -12.73046875 236.158203125 79.91796875 229.485351562 193.873046875 c 1
EndSplineSet
EndChar

StartChar: T
Encoding: 84 84 20
Width: 1000
VWidth: 0
Flags: H
LayerCount: 2
Fore
SplineSet
251.235351562 611.436523438 m 1
 799.606445312 611.436523438 l 1
 799.606445312 504.50390625 l 1
 583.005859375 504.50390625 l 1
 583.005859375 0 l 1
 470.58203125 0 l 1
 470.58203125 504.50390625 l 1
 251.235351562 504.50390625 l 1
 251.235351562 611.436523438 l 1
EndSplineSet
EndChar

StartChar: U
Encoding: 85 85 21
Width: 1000
VWidth: 0
Flags: H
LayerCount: 2
Fore
SplineSet
815.05859375 274.219726562 m 2
 815.05859375 -92.2802734375 268.322265625 -90.5322265625 268.322265625 274.219726562 c 2
 268.322265625 629.6953125 l 1
 388.103515625 629.6953125 l 1
 388.103515625 260.696289062 l 2
 388.103515625 48.189453125 701.073242188 62.896484375 701.073242188 260.696289062 c 2
 701.073242188 629.6953125 l 1
 815.05859375 629.6953125 l 1
 815.05859375 274.219726562 l 2
EndSplineSet
EndChar

StartChar: V
Encoding: 86 86 22
Width: 1000
VWidth: 0
Flags: H
LayerCount: 2
Fore
SplineSet
180.3671875 605.819335938 m 1
 299.959960938 605.819335938 l 1
 498.168945312 99.4609375 l 1
 699.8359375 605.819335938 l 1
 810.76171875 605.819335938 l 1
 570.749023438 0 l 1
 425.619140625 0 l 1
 180.3671875 605.819335938 l 1
EndSplineSet
EndChar

StartChar: W
Encoding: 87 87 23
Width: 1000
VWidth: 0
Flags: H
LayerCount: 2
Fore
SplineSet
57.0478515625 606.8515625 m 1
 171.317382812 606.850585938 l 1
 309.544921875 108.923828125 l 1
 439.063476562 606.84765625 l 1
 583.282226562 606.900390625 l 1
 715.275390625 108.924804688 l 1
 852.84765625 606.849609375 l 1
 953.876953125 606.849609375 l 1
 786.377929688 0 l 1
 645.196289062 0 l 1
 510.5390625 477.131835938 l 1
 377.575195312 0 l 1
 230.383789062 0 l 1
 57.0478515625 606.8515625 l 1
EndSplineSet
EndChar

StartChar: X
Encoding: 88 88 24
Width: 1000
VWidth: 0
Flags: H
LayerCount: 2
Fore
SplineSet
238.087890625 616.770507812 m 1
 361.71484375 616.770507812 l 1
 520.666992188 395.748046875 l 1
 675.6171875 616.770507812 l 1
 797.294921875 616.770507812 l 1
 584.068359375 307.594726562 l 1
 805.280273438 0 l 1
 672.955078125 0 l 1
 510.984375 229.731445312 l 1
 350.7109375 0 l 1
 231.46484375 0 l 1
 449.040039062 317.581054688 l 1
 238.087890625 616.770507812 l 1
EndSplineSet
EndChar

StartChar: Y
Encoding: 89 89 25
Width: 1000
VWidth: 0
Flags: H
LayerCount: 2
Fore
SplineSet
193.994140625 612.0234375 m 1
 317.169921875 612.0234375 l 1
 500.435546875 349.14453125 l 1
 676.962890625 612.0234375 l 1
 799.080078125 612.0234375 l 1
 556.678710938 245.702148438 l 1
 556.678710938 0 l 1
 442.127929688 0 l 1
 442.127929688 246.927734375 l 1
 193.994140625 612.0234375 l 1
EndSplineSet
EndChar

StartChar: Z
Encoding: 90 90 26
Width: 1000
VWidth: 0
Flags: H
LayerCount: 2
Fore
SplineSet
265.848632812 607.631835938 m 1
 730.037109375 607.631835938 l 1
 730.037109375 516.03125 l 1
 389.370117188 107.583007812 l 1
 738.012695312 107.583007812 l 1
 738.012695312 0 l 1
 253.891601562 0 l 1
 253.891601562 110.12890625 l 1
 588.595703125 510.015625 l 1
 265.848632812 510.015625 l 1
 265.848632812 607.631835938 l 1
EndSplineSet
EndChar

StartChar: a
Encoding: 97 97 27
Width: 1000
VWidth: 0
Flags: H
LayerCount: 2
Fore
SplineSet
558.625 482.583007812 m 0
 656.5078125 481.8671875 749.765625 433.46484375 749.765625 339.537109375 c 2
 749.765625 5.529296875 l 1
 657.631835938 5.529296875 l 1
 646.11328125 51.5966796875 l 1
 570.86328125 -21.33984375 382.870117188 -16.7744140625 344.37109375 64.177734375 c 0
 256.525390625 248.896484375 405.159179688 309.70703125 641.499023438 293.470703125 c 1
 670.291015625 395.3203125 483.702148438 428.06640625 450.3046875 339.537109375 c 1
 339.736328125 339.537109375 l 1
 358.235351562 436.329101562 460.741210938 483.299804688 558.625 482.583007812 c 0
572.834960938 209.009765625 m 0
 483.302734375 208.747070312 426.54296875 194.513671875 424.880859375 159.25390625 c 0
 424.138671875 143.521484375 428.364257812 103.802734375 457.546875 99.986328125 c 0
 617.475585938 79.072265625 647.33203125 121.112304688 639.78515625 207.044921875 c 1
 615.908203125 208.38671875 593.49609375 209.069335938 572.834960938 209.009765625 c 0
EndSplineSet
EndChar

StartChar: b
Encoding: 98 98 28
Width: 1000
VWidth: 0
Flags: H
LayerCount: 2
Fore
SplineSet
280.591796875 636.712890625 m 1
 393.50390625 636.712890625 l 1
 393.50390625 424.55078125 l 1
 432.375976562 462.780273438 486.654296875 483.458984375 541.290039062 484.38671875 c 0
 603.311523438 485.438476562 665.764648438 461.069335938 706.5546875 408.112304688 c 0
 794.927734375 293.379882812 772.916015625 153.64453125 706.5546875 68.29296875 c 0
 635.836914062 -22.662109375 455.22265625 -18.291015625 383.045898438 54.93359375 c 1
 372.95703125 9.24609375 l 1
 280.591796875 9.24609375 l 1
 280.591796875 636.712890625 l 1
520.23828125 379.208984375 m 0
 520.237304688 379.208984375 520.237304688 379.208984375 520.236328125 379.208984375 c 0
 446.956054688 379.208984375 387.481445312 315.9609375 387.481445312 238.030273438 c 0
 387.481445312 238.028320312 387.481445312 238.026367188 387.481445312 238.024414062 c 0
 387.484375 160.095703125 446.958007812 96.849609375 520.236328125 96.849609375 c 0
 520.237304688 96.849609375 520.237304688 96.849609375 520.23828125 96.849609375 c 0
 520.23828125 96.849609375 520.23828125 96.849609375 520.239257812 96.849609375 c 0
 593.517578125 96.849609375 652.9921875 160.095703125 652.994140625 238.024414062 c 0
 652.994140625 238.026367188 652.994140625 238.028320312 652.994140625 238.030273438 c 0
 652.994140625 315.9609375 593.51953125 379.208984375 520.239257812 379.208984375 c 0
 520.23828125 379.208984375 520.23828125 379.208984375 520.23828125 379.208984375 c 0
EndSplineSet
EndChar

StartChar: c
Encoding: 99 99 29
Width: 1000
VWidth: 0
Flags: H
LayerCount: 2
Fore
SplineSet
545.106445312 491.274414062 m 0
 646.805664062 491.274414062 733.512695312 424.936523438 767.200195312 331.76953125 c 1
 642.673828125 331.76953125 l 1
 621.884765625 362.2734375 577.69921875 387.041015625 544.044921875 387.052734375 c 0
 474.791015625 387.051757812 418.583984375 322.270507812 418.583007812 242.453125 c 0
 418.583007812 242.450195312 418.583007812 242.447265625 418.583007812 242.4453125 c 0
 418.583007812 162.625 474.790039062 97.841796875 544.044921875 97.8408203125 c 0
 581.625 97.8896484375 628.720703125 127.421875 649.168945312 163.76171875 c 1
 768.681640625 163.76171875 l 1
 736.125 68.3662109375 648.346679688 -0 545.106445312 -0 c 0
 399.2578125 -0 307.982421875 109.977539062 307.982421875 245.63671875 c 0
 307.982421875 381.295898438 414.14453125 491.274414062 545.106445312 491.274414062 c 0
EndSplineSet
EndChar

StartChar: d
Encoding: 100 100 30
Width: 1000
VWidth: 0
Flags: H
LayerCount: 2
Fore
SplineSet
784.616210938 636.712890625 m 1
 784.616210938 9.2451171875 l 1
 692.250976562 9.2451171875 l 1
 682.161132812 54.93359375 l 1
 609.984375 -18.291015625 429.370117188 -22.662109375 358.653320312 68.29296875 c 0
 292.291992188 153.64453125 270.279296875 293.379882812 358.653320312 408.112304688 c 0
 399.442382812 461.069335938 461.895507812 485.438476562 523.91796875 484.385742188 c 0
 578.553710938 483.459960938 632.83203125 462.780273438 671.703125 424.55078125 c 1
 671.703125 636.712890625 l 1
 784.616210938 636.712890625 l 1
544.969726562 379.208984375 m 0
 544.969726562 379.208984375 544.96875 379.208984375 544.96875 379.208984375 c 0
 471.6875 379.208984375 412.213867188 315.9609375 412.213867188 238.030273438 c 0
 412.213867188 238.028320312 412.213867188 238.026367188 412.213867188 238.024414062 c 0
 412.215820312 160.095703125 471.689453125 96.849609375 544.96875 96.849609375 c 0
 544.96875 96.849609375 544.969726562 96.849609375 544.969726562 96.849609375 c 0
 544.969726562 96.849609375 544.970703125 96.849609375 544.970703125 96.849609375 c 0
 618.249023438 96.849609375 677.723632812 160.095703125 677.725585938 238.024414062 c 0
 677.725585938 238.026367188 677.725585938 238.028320312 677.725585938 238.030273438 c 0
 677.725585938 315.9609375 618.251953125 379.208984375 544.970703125 379.208984375 c 0
 544.970703125 379.208984375 544.969726562 379.208984375 544.969726562 379.208984375 c 0
EndSplineSet
EndChar

StartChar: e
Encoding: 101 101 31
Width: 1000
VWidth: 0
Flags: H
LayerCount: 2
Fore
SplineSet
535.380859375 487.952148438 m 0
 665.315429688 487.952148438 763.676757812 400.797851562 763.676757812 243.9765625 c 0
 763.676757812 227.354492188 762.59765625 211.974609375 760.764648438 197.509765625 c 1
 413.26171875 197.509765625 l 1
 427.547851562 138.915039062 471.274414062 96.4326171875 535.969726562 96.4326171875 c 0
 575.715820312 96.4326171875 610.048828125 110.427734375 632.517578125 140.575195312 c 1
 747.784179688 140.575195312 l 1
 704.643554688 17.640625 585.227539062 0 535.380859375 0 c 0
 405.447265625 0 300.118164062 91.798828125 300.118164062 243.9765625 c 0
 300.118164062 389.1796875 405.447265625 487.952148438 535.380859375 487.952148438 c 0
535.969726562 389.208007812 m 0
 482.254882812 389.575195312 435.620117188 349.005859375 416.918945312 293.931640625 c 1
 653.674804688 293.931640625 l 1
 637.56640625 353.715820312 593.28515625 388.815429688 535.969726562 389.208007812 c 0
EndSplineSet
EndChar

StartChar: f
Encoding: 102 102 32
Width: 1000
VWidth: 0
Flags: H
LayerCount: 2
Fore
SplineSet
457.53125 481.856445312 m 2
 457.53125 610.748046875 519.555664062 628.197265625 608.950195312 628.197265625 c 2
 644.961914062 628.197265625 l 1
 644.961914062 531.686523438 l 1
 599.268554688 531.938476562 568.73046875 529.060546875 568.73046875 481.856445312 c 2
 568.73046875 468.129882812 l 1
 642.860351562 468.129882812 l 1
 642.860351562 370.657226562 l 1
 568.73046875 370.657226562 l 1
 568.73046875 0 l 1
 457.53125 0 l 1
 457.53125 370.657226562 l 1
 398.504882812 370.657226562 l 1
 398.504882812 468.129882812 l 1
 457.53125 468.129882812 l 1
 457.53125 481.856445312 l 2
EndSplineSet
EndChar

StartChar: g
Encoding: 103 103 33
Width: 1000
VWidth: 0
Flags: H
LayerCount: 2
Fore
SplineSet
287.514648438 -2.208984375 m 1
 407.483398438 -3.826171875 l 1
 456.845703125 -83.759765625 665.65625 -88.951171875 648.4765625 68.7392578125 c 1
 609.595703125 32.056640625 555.305664062 12.21484375 500.657226562 11.326171875 c 0
 438.62109375 10.3154296875 376.154296875 33.69921875 335.35546875 84.51171875 c 0
 246.961914062 194.6015625 268.979492188 328.681640625 335.35546875 410.579101562 c 0
 406.088867188 497.852539062 586.744140625 493.659179688 658.936523438 423.397460938 c 1
 669.028320312 467.236328125 l 1
 761.4140625 467.236328125 l 1
 761.4140625 49.3310546875 l 2
 761.4140625 -172.94140625 387.5625 -223.4453125 287.514648438 -2.208984375 c 1
521.713867188 112.24609375 m 0
 595.051757812 112.24609375 654.5 172.8984375 654.5 247.716796875 c 0
 654.498046875 322.53125 595.047851562 383.1796875 521.713867188 383.178710938 c 0
 448.379882812 383.1796875 388.927734375 322.53125 388.927734375 247.716796875 c 0
 388.924804688 172.8984375 448.375976562 112.24609375 521.713867188 112.24609375 c 0
EndSplineSet
EndChar

StartChar: h
Encoding: 104 104 34
Width: 1000
VWidth: 0
Flags: H
LayerCount: 2
Fore
SplineSet
418.051757812 409.356445312 m 1
 484.705078125 493.959960938 731.005859375 540.89453125 731.005859375 268.456054688 c 2
 731.005859375 0.0009765625 l 1
 618.284179688 0.0009765625 l 1
 618.284179688 280.815429688 l 2
 618.284179688 413.46875 418.051757812 383.965820312 418.051757812 289.223632812 c 2
 418.051757812 0 l 1
 306.8203125 0 l 1
 306.8203125 630.357421875 l 1
 418.051757812 630.357421875 l 1
 418.051757812 409.356445312 l 1
EndSplineSet
EndChar

StartChar: i
Encoding: 105 105 35
Width: 1000
VWidth: 0
Flags: H
LayerCount: 2
Fore
SplineSet
501.08203125 614.67578125 m 1
 616.506835938 614.67578125 l 1
 616.506835938 509.341796875 l 1
 501.08203125 509.341796875 l 1
 501.08203125 614.67578125 l 1
501.08203125 467.5 m 1
 616.506835938 467.5 l 1
 616.506835938 0 l 1
 501.08203125 0 l 1
 501.08203125 467.5 l 1
EndSplineSet
EndChar

StartChar: j
Encoding: 106 106 36
Width: 1000
VWidth: 0
Flags: H
LayerCount: 2
Fore
SplineSet
479.120117188 611.076171875 m 1
 594.544921875 611.076171875 l 1
 594.544921875 505.7421875 l 1
 479.120117188 505.7421875 l 1
 479.120117188 611.076171875 l 1
479.120117188 463.900390625 m 1
 594.544921875 463.900390625 l 1
 594.544921875 -3.599609375 l 2
 594.544921875 -90.275390625 557.033203125 -144.290039062 442.809570312 -136.6171875 c 1
 442.809570312 -41.1865234375 l 1
 470.233398438 -39.1474609375 479.120117188 -32.041015625 479.120117188 -3.599609375 c 2
 479.120117188 463.900390625 l 1
EndSplineSet
EndChar

StartChar: k
Encoding: 107 107 37
Width: 1000
VWidth: 0
Flags: H
LayerCount: 2
Fore
SplineSet
279.365234375 631.051757812 m 1
 396.123046875 631.051757812 l 1
 396.123046875 322.993164062 l 1
 566.431640625 467.02734375 l 1
 715.491210938 467.02734375 l 1
 546.556640625 324.370117188 l 1
 703.309570312 0 l 1
 575.4296875 0 l 1
 460.18359375 251.439453125 l 1
 396.123046875 197.341796875 l 1
 396.123046875 0 l 1
 279.365234375 0 l 1
 279.365234375 631.051757812 l 1
EndSplineSet
EndChar

StartChar: l
Encoding: 108 108 38
Width: 1000
VWidth: 0
Flags: H
LayerCount: 2
Fore
SplineSet
439.444335938 0 m 1
 439.444335938 631.051757812 l 1
 550.643554688 631.051757812 l 1
 550.643554688 0 l 1
 439.444335938 0 l 1
EndSplineSet
EndChar

StartChar: m
Encoding: 109 109 39
Width: 1000
VWidth: 0
Flags: H
LayerCount: 2
Fore
SplineSet
282.034179688 407.149414062 m 1
 282.034179688 407.14453125 l 1
 360.219726562 509.125976562 530.146484375 487.212890625 570.80078125 388.616210938 c 1
 627.478515625 508.625976562 884.935546875 522.751953125 884.935546875 296.05859375 c 2
 884.935546875 0 l 1
 770.94921875 0 l 1
 770.94921875 296.05859375 l 2
 770.94921875 396.609375 590.267578125 396.290039062 590.267578125 296.05859375 c 2
 590.267578125 0 l 1
 473.486328125 0 l 1
 473.486328125 296.05859375 l 2
 473.486328125 394.875976562 292.814453125 398.694335938 292.814453125 296.069335938 c 2
 292.814453125 0.0048828125 l 1
 177.431640625 0.0048828125 l 1
 177.431640625 467.03125 l 1
 270.575195312 467.03125 l 1
 282.034179688 407.149414062 l 1
EndSplineSet
EndChar

StartChar: n
Encoding: 110 110 40
Width: 1000
VWidth: 0
Flags: H
LayerCount: 2
Fore
SplineSet
447.388671875 407.064453125 m 1
 447.388671875 407.060546875 l 1
 520.560546875 505.639648438 768.36328125 508.399414062 767.083984375 295.997070312 c 2
 767.083984375 0 l 1
 650.130859375 0 l 1
 650.130859375 295.997070312 l 2
 650.130859375 394.793945312 458.56640625 398.611328125 458.56640625 296.0078125 c 2
 458.56640625 0.0048828125 l 1
 338.893554688 0.0048828125 l 1
 338.893554688 466.934570312 l 1
 435.501953125 466.934570312 l 1
 447.388671875 407.064453125 l 1
EndSplineSet
EndChar

StartChar: o
Encoding: 111 111 41
Width: 1000
VWidth: 0
Flags: H
LayerCount: 2
Fore
SplineSet
493.251953125 488.3984375 m 0
 638.984375 486.579101562 735.541992188 373.770507812 735.541992188 236.7734375 c 0
 735.541992188 92.1279296875 608.889648438 -2.0888671875 491.908203125 0.03515625 c 0
 348.481445312 2.6396484375 250.477539062 116.962890625 252.318359375 250.303710938 c 0
 254.307617188 394.602539062 373.896484375 489.888671875 493.251953125 488.3984375 c 0
497.290039062 384.505859375 m 0
 436.02734375 386.596679688 374.077148438 351.615234375 369.759765625 257.068359375 c 0
 365.065429688 154.415039062 416.5859375 104.625 490.559570312 101.857421875 c 0
 564.04296875 99.107421875 624.2109375 155.077148438 624.2109375 240.834960938 c 0
 624.2109375 327.251953125 577.573242188 381.765625 497.290039062 384.505859375 c 0
EndSplineSet
EndChar

StartChar: p
Encoding: 112 112 42
Width: 1000
VWidth: 0
Flags: H
LayerCount: 2
Fore
SplineSet
307.120117188 -134.327148438 m 1
 307.120117188 461.275390625 l 1
 399.484375 461.275390625 l 1
 412.76171875 412.401367188 l 1
 484.9375 493.876953125 662.3671875 501.922851562 733.083984375 402.227539062 c 0
 795.6328125 314.045898438 821.456054688 177.140625 733.083984375 62.408203125 c 0
 692.29296875 9.4521484375 629.840820312 -14.91796875 567.819335938 -13.865234375 c 0
 513.184570312 -12.9384765625 458.905273438 7.740234375 420.034179688 45.9697265625 c 1
 420.034179688 -134.327148438 l 1
 307.120117188 -134.327148438 l 1
546.767578125 91.3115234375 m 0
 620.086914062 91.310546875 679.525390625 154.522460938 679.521484375 232.497070312 c 0
 679.521484375 310.466796875 620.083007812 373.672851562 546.767578125 373.671875 c 0
 473.448242188 373.672851562 414.012695312 310.466796875 414.009765625 232.497070312 c 0
 414.009765625 154.522460938 473.444335938 91.310546875 546.767578125 91.3115234375 c 0
EndSplineSet
EndChar

StartChar: q
Encoding: 113 113 43
Width: 1000
VWidth: 0
Flags: H
LayerCount: 2
Fore
SplineSet
736.314453125 -131.881835938 m 1
 623.403320312 -131.881835938 l 1
 623.403320312 48.4150390625 l 1
 584.530273438 10.185546875 530.251953125 -10.4931640625 475.616210938 -11.419921875 c 0
 413.594726562 -12.47265625 351.141601562 11.8974609375 310.3515625 64.853515625 c 0
 221.9765625 179.5859375 247.801757812 316.491210938 310.3515625 404.673828125 c 0
 381.068359375 504.368164062 558.497070312 496.322265625 630.673828125 414.845703125 c 1
 643.948242188 463.720703125 l 1
 736.314453125 463.720703125 l 1
 736.314453125 -131.881835938 l 1
496.66796875 93.7568359375 m 0
 569.990234375 93.755859375 629.421875 156.967773438 629.421875 234.942382812 c 0
 629.419921875 312.912109375 569.986328125 376.118164062 496.66796875 376.1171875 c 0
 423.350585938 376.118164062 363.911132812 312.912109375 363.911132812 234.942382812 c 0
 363.908203125 156.967773438 423.346679688 93.755859375 496.66796875 93.7568359375 c 0
EndSplineSet
EndChar

StartChar: r
Encoding: 114 114 44
Width: 1000
VWidth: 0
Flags: H
LayerCount: 2
Fore
SplineSet
420.208007812 469.502929688 m 1
 513.420898438 469.502929688 l 1
 525.249023438 397.553710938 l 1
 583.084960938 472.633789062 616.081054688 469.856445312 649.383789062 468.307617188 c 1
 649.383789062 373.188476562 l 1
 588.514648438 368.640625 533.505859375 327.060546875 533.505859375 243.0078125 c 2
 533.505859375 0 l 1
 420.208007812 0 l 1
 420.208007812 469.502929688 l 1
EndSplineSet
EndChar

StartChar: s
Encoding: 115 115 45
Width: 1000
VWidth: 0
Flags: H
LayerCount: 2
Fore
SplineSet
275.255859375 159.674804688 m 1
 384.356445312 159.674804688 l 1
 411.779296875 62.17578125 581.9140625 78.2734375 596.517578125 129.69921875 c 0
 606.921875 166.346679688 586.056640625 175.701171875 536.079101562 191.348632812 c 0
 505.774414062 200.836914062 451.122070312 206.930664062 423.8515625 209.979492188 c 0
 402.9921875 212.310546875 340.633789062 234.07421875 305.659179688 276.447265625 c 0
 278.55859375 309.283203125 284.904296875 368.172851562 316.416015625 414.227539062 c 0
 391.110351562 523.396484375 695.325195312 498.5 704.5234375 349.700195312 c 1
 590.942382812 349.700195312 l 1
 565.94921875 399.794921875 534.407226562 392.571289062 485.318359375 394.55078125 c 0
 449.079101562 396.012695312 407.045898438 386.990234375 396.860351562 359.861328125 c 0
 384.990234375 328.248046875 406.567382812 312.279296875 446.370117188 301.134765625 c 0
 479.446289062 291.874023438 526.508789062 289.46484375 570.830078125 279.583007812 c 0
 618.86328125 268.875 672.059570312 261.176757812 698.458007812 195.321289062 c 0
 714.208007812 156.026367188 709.735351562 103.360351562 691.965820312 74.3173828125 c 0
 660.896484375 23.5283203125 597.541992188 7.427734375 525.737304688 1.294921875 c 0
 375.546875 -11.5341796875 280.627929688 73.107421875 275.255859375 159.674804688 c 1
EndSplineSet
EndChar

StartChar: t
Encoding: 116 116 46
Width: 1000
VWidth: 0
Flags: H
LayerCount: 2
Fore
SplineSet
451.358398438 583.853515625 m 1
 564.331054688 583.853515625 l 1
 564.331054688 468.35546875 l 1
 657.234375 468.35546875 l 1
 657.234375 370.44140625 l 1
 564.331054688 370.44140625 l 1
 564.331054688 163.303710938 l 2
 564.331054688 83.322265625 601.068359375 101.239257812 655.00390625 97.634765625 c 1
 655.00390625 1.3603515625 l 1
 466.759765625 -8.9765625 451.358398438 39.083984375 451.358398438 163.303710938 c 2
 451.358398438 370.44140625 l 1
 398.625976562 370.44140625 l 1
 398.625976562 468.35546875 l 1
 451.358398438 468.35546875 l 1
 451.358398438 583.853515625 l 1
EndSplineSet
EndChar

StartChar: u
Encoding: 117 117 47
Width: 1000
VWidth: 0
Flags: H
LayerCount: 2
Fore
SplineSet
739.868164062 207.69921875 m 2
 739.868164062 -76.38671875 316.310546875 -61.986328125 316.310546875 207.69921875 c 2
 316.310546875 481.075195312 l 1
 428.951171875 481.075195312 l 1
 428.951171875 213.565429688 l 2
 428.951171875 81.3251953125 626.061523438 61.6552734375 626.061523438 213.565429688 c 2
 626.061523438 481.075195312 l 1
 739.868164062 481.075195312 l 1
 739.868164062 207.69921875 l 2
EndSplineSet
EndChar

StartChar: v
Encoding: 118 118 48
Width: 1000
VWidth: 0
Flags: H
LayerCount: 2
Fore
SplineSet
258.094726562 470.62109375 m 1
 372.172851562 470.62109375 l 1
 499.400390625 128.69921875 l 1
 626.038085938 470.62109375 l 1
 742.158203125 470.62109375 l 1
 562.442382812 0 l 1
 434.994140625 0 l 1
 258.094726562 470.62109375 l 1
EndSplineSet
EndChar

StartChar: w
Encoding: 119 119 49
Width: 1000
VWidth: 0
Flags: H
LayerCount: 2
Fore
SplineSet
158.6640625 471.231445312 m 1
 265.57421875 471.231445312 l 1
 364.03515625 128.8671875 l 1
 460.088867188 471.231445312 l 1
 569.072265625 471.231445312 l 1
 667.541992188 128.8671875 l 1
 763.598632812 471.231445312 l 1
 866.709960938 471.231445312 l 1
 729.088867188 0 l 1
 599.405273438 0 l 1
 511.505859375 301.825195312 l 1
 423.366210938 0 l 1
 295.909179688 0 l 1
 158.6640625 471.231445312 l 1
EndSplineSet
EndChar

StartChar: x
Encoding: 120 120 50
Width: 1000
VWidth: 0
Flags: H
LayerCount: 2
Fore
SplineSet
329.235351562 469.67578125 m 1
 452.848632812 469.67578125 l 1
 562.682617188 314.143554688 l 1
 669.801757812 469.67578125 l 1
 788.138671875 469.67578125 l 1
 619.26953125 234.001953125 l 1
 784.5234375 0 l 1
 655.8125 0 l 1
 548.430664062 154.438476562 l 1
 442.823242188 0 l 1
 322.69921875 0 l 1
 492.084960938 235.473632812 l 1
 329.235351562 469.67578125 l 1
EndSplineSet
EndChar

StartChar: y
Encoding: 121 121 51
Width: 1000
VWidth: 0
Flags: H
LayerCount: 2
Fore
SplineSet
318.908203125 463.790039062 m 1
 434.584960938 463.790039062 l 1
 561.295898438 149.48828125 l 1
 688.083984375 463.790039062 l 1
 799.251953125 463.790039062 l 1
 558.576171875 -132.850585938 l 1
 447.409179688 -132.850585938 l 1
 505.970703125 12.3388671875 l 1
 318.908203125 463.790039062 l 1
EndSplineSet
EndChar

StartChar: z
Encoding: 122 122 52
Width: 1000
VWidth: 0
Flags: H
LayerCount: 2
Fore
SplineSet
718.049804688 367.2734375 m 1
 465.466796875 96.9365234375 l 1
 724.883789062 96.9365234375 l 1
 724.883789062 0 l 1
 327.5703125 0 l 1
 327.5703125 96.9365234375 l 1
 576.05859375 367.2734375 l 1
 334.401367188 367.2734375 l 1
 334.401367188 465.576171875 l 1
 718.049804688 465.576171875 l 1
 718.049804688 367.2734375 l 1
EndSplineSet
EndChar

StartChar: braceleft
Encoding: 123 123 53
Width: 1000
VWidth: 0
Flags: H
LayerCount: 2
Fore
SplineSet
647.180664062 632.717773438 m 1
 647.180664062 528.471679688 l 1
 445.947265625 487.340820312 433.133789062 20.7177734375 647.180664062 -35.3056640625 c 1
 647.180664062 -137.423828125 l 1
 478.890625 -108.420898438 397.827148438 28.8603515625 376.993164062 194.459960938 c 1
 298.27734375 194.459960938 l 1
 298.27734375 302.9609375 l 1
 376.993164062 302.9609375 l 1
 400.145507812 482.36328125 476.782226562 606.224609375 647.180664062 632.717773438 c 1
EndSplineSet
EndChar

StartChar: braceright
Encoding: 125 125 54
Width: 1000
VWidth: 0
Flags: H
LayerCount: 2
Fore
SplineSet
387.627929688 629.40234375 m 1
 558.026367188 602.909179688 634.663085938 479.047851562 657.815429688 299.645507812 c 1
 736.53125 299.645507812 l 1
 736.53125 191.14453125 l 1
 657.815429688 191.14453125 l 1
 636.982421875 25.544921875 554.092773438 -109.923828125 385.801757812 -138.926757812 c 1
 385.801757812 -36.80859375 l 1
 599.848632812 19.21484375 588.862304688 484.025390625 387.627929688 525.15625 c 1
 387.627929688 629.40234375 l 1
EndSplineSet
EndChar

StartChar: bar
Encoding: 124 124 55
Width: 1000
VWidth: 0
Flags: H
LayerCount: 2
Fore
SplineSet
446.311523438 -131.280273438 m 1
 446.311523438 634.395507812 l 1
 558.874023438 634.395507812 l 1
 558.874023438 -131.280273438 l 1
 446.311523438 -131.280273438 l 1
EndSplineSet
EndChar

StartChar: asciitilde
Encoding: 126 126 56
Width: 1000
VWidth: 0
Flags: H
LayerCount: 2
Fore
SplineSet
344.51953125 256.1015625 m 1
 345.854492188 292.849609375 355.8515625 345.37109375 388.922851562 363.282226562 c 0
 450.498046875 396.6328125 507.967773438 350.872070312 569.599609375 346.440429688 c 0
 593.284179688 344.736328125 611.256835938 345.71484375 606.346679688 374.000976562 c 1
 701.279296875 374.000976562 l 1
 695.90625 339.294921875 694.116210938 288.890625 663 269.881835938 c 0
 602.354492188 232.8359375 533.802734375 270.108398438 468.54296875 280.600585938 c 0
 455.392578125 282.713867188 438.2109375 290.954101562 436.388671875 256.1015625 c 1
 344.51953125 256.1015625 l 1
EndSplineSet
EndChar
